# AST/ASF file generated using VICON BodyLanguage
# -----------------------------------------------
:version 1.10
:name VICON
:units
  mass 1.0
  length 0.45
  angle deg
:documentation
   .ast/.asf automatically generated from VICON data using
   VICON BodyBuilder and BodyLanguage model FoxedUp or BRILLIANT.MOD
:root
   order TX TY TZ RX RY RZ
   axis XYZ
   position 0 0 0  
   orientation 0 0 0 
:bonedata
  begin
     id 1 
     name lhipjoint
     direction 0.588788 -0.725889 0.355548 
     length 2.37778 
     axis 0 0 0  XYZ
  end
  begin
     id 2 
     name lfemur
     direction 0.34202 -0.939693 0  
     length 6.86393  
     axis 0 0 20  XYZ
    dof rx ry rz
    limits (-160.0 20.0)
           (-70.0 70.0)
           (-60.0 70.0)
  end
  begin
     id 3 
     name ltibia
     direction 0.34202 -0.939693 0   
     length 7.32851   
     axis 0 0 20   XYZ
    dof rx
    limits (-10.0 170.0)
  end
  begin
     id 4 
     name lfoot
     direction 0.0626533 -0.172138 0.983078   
     length 1.98929   
     axis -90 7.62852e-016 20   XYZ
    dof rx rz
    limits (-45.0 90.0)
           (-70.0 20.0)
  end
  begin
     id 5 
     name ltoes
     direction 1.53647e-011 -4.21734e-011 1   
     length 1.00479   
     axis -90 7.62852e-016 20   XYZ
    dof rx
    limits (-90.0 20.0)
  end
  begin
     id 6 
     name rhipjoint
     direction -0.59141 -0.724168 0.354705   
     length 2.38343  
     axis 0 0 0  XYZ 
  end
  begin
     id 7 
     name rfemur
     direction -0.34202 -0.939693 0   
     length 6.95589   
     axis 0 0 -20   XYZ
    dof rx ry rz
    limits (-160.0 20.0)
           (-70.0 70.0)
           (-70.0 60.0)
  end
  begin
     id 8 
     name rtibia
     direction -0.34202 -0.939693 0   
     length 7.32327   
     axis 0 0 -20   XYZ
    dof rx
    limits (-10.0 170.0)
 end
 begin
     id 9 
     name rfoot
     direction -0.0660461 -0.18146 0.981178   
     length 1.85272  
     axis -90 -7.62852e-016 -20   XYZ
    dof rx rz
    limits (-45.0 90.0)
           (-20.0 70.0)
  end
  begin
     id 10 
     name rtoes
     direction -1.53586e-011 -4.21988e-011 1   
     length 0.93746   
     axis -90 -7.62852e-016 -20   XYZ
    dof rx
    limits (-90.0 20.0)
  end
  begin
     id 11 
     name lowerback
     direction -0.0107982 0.991059 0.13299   
     length 1.98691   
     axis 0 0 0   XYZ
    dof rx ry rz
    limits (-20.0 45.0)
           (-30.0 30.0)
           (-30.0 30.0)
  end
  begin
     id 12 
     name upperback
     direction 0.0076296 0.999916 0.0104576   
     length 1.99501   
     axis 0 0 0   XYZ
    dof rx ry rz
    limits (-20.0 45.0)
           (-30.0 30.0)
           (-30.0 30.0)
  end
  begin
     id 13 
     name thorax
     direction 0.01176 0.998615 -0.0512909   
     length 2.03144   
     axis 0 0 0   XYZ
    dof rx ry rz
    limits (-20.0 45.0)
           (-30.0 30.0)
           (-30.0 30.0)
  end
  begin
     id 14 
     name lowerneck
     direction -0.0171909 0.999644 0.0204011   
     length 1.71818   
     axis 0 0 0   XYZ
    dof rx ry rz
    limits (-20.0 45.0)
           (-30.0 30.0)
           (-30.0 30.0)
  end
  begin
     id 15 
     name upperneck
     direction 0.0250902 0.997482 -0.0663316   
     length 1.66199   
     axis 0 0 0   XYZ
    dof rx ry rz
    limits (-20.0 45.0)
           (-30.0 30.0)
           (-30.0 30.0)
  end
  begin
     id 16
     name head
     direction 0.00881535 0.99956 -0.0283365  
     length 1.81545  
     axis 0 0 0   XYZ
    dof rx ry rz
    limits (-20.0 45.0)
           (-30.0 30.0)
           (-30.0 30.0)
  end
  begin
     id 17 
     name lclavicle
     direction 0.840411 0.486876 -0.238035  
     length 3.30409  
     axis 0 0 0   XYZ
    dof ry rz
    limits (-20.0 10.0)
           (0.0 20.0)
  end
  begin
     id 18 
     name lhumerus
     direction 1 -4.48977e-011 -5.16239e-027   
     length 4.62672   
     axis 180 -30 -90   XYZ
    dof rx ry rz
    limits (-60.0 90.0)
           (-90.0 90.0)
           (-90.0 90.0)
  end
  begin
     id 19
     name lradius
     direction 1 -4.48977e-011 -8.71171e-027   
     length 3.11018   
     axis 180 -30 -90   XYZ
    dof rx
    limits (-10.0 170.0)
  end
  begin
     id 20
     name lwrist
     direction 1 -4.48912e-011 -1.03764e-026   
     length 1.55509   
     axis 9.09556e-015 90 90   XYZ
    dof ry
    limits (-180.0 0.0)
 end
  begin
     id 21 
     name lhand
     direction 1 -4.49072e-011 -2.07528e-026   
     length 0.743834   
     axis 1.3242e-014 90 90   XYZ
    dof rx rz
    limits (-90.0 90.0)
           (-45.0 45.0)
  end
  begin
     id 22 
     name lfingers
     direction 1 -4.48909e-011 -4.15056e-026   
     length 0.599698   
     axis 2.64841e-014 90 90   XYZ
    dof rx
    limits (0.0 90.0)
  end
  begin
     id 23
     name lthumb
     direction 0.707107 -6.35013e-011 0.707107   
     length 0.86105   
     axis -90 45 2.85299e-015   XYZ
    dof rx rz
    limits (-45.0 45.0)
           (-45.0 45.0)
  end
  begin
     id 24 
     name rclavicle
     direction -0.835208 0.500237 -0.228452   
     length 3.2716  
     axis 0 0 0   XYZ 
    dof ry rz
    limits (-10.0 20.0)
           (-20.0 0.0)
  end
  begin
     id 25 
     name rhumerus
     direction -1 -4.48978e-011 -5.1953e-028  
     length 4.55919   
     axis 180 30 90   XYZ
    dof rx ry rz
    limits (-90.0 60.0)
           (-90.0 90.0)
           (-90.0 90.0)
  end
  begin
     id 26 
     name rradius
     direction -1 -4.48961e-011 -5.99546e-027   
     length 3.22748   
     axis 180 30 90   XYZ
    dof rx
    limits (-10.0 170.0)
  end
  begin
     id 27 
     name rwrist
     direction -1 -4.48986e-011 -1.03764e-026   
     length 1.61374   
     axis 9.09556e-015 -90 -90   XYZ
    dof ry
    limits (-180.0 0.0)
  end
  begin
     id 28
     name rhand
     direction -1 -4.4899e-011 -2.07528e-026   
     length 0.700882   
     axis 1.3242e-014 -90 -90   XYZ
    dof rx rz
    limits (-90.0 90.0)
           (-45.0 45.0)
  end
  begin
     id 29
     name rfingers
     direction -1 -4.48991e-011 -4.15056e-026   
     length 0.565069   
     axis 2.64841e-014 -90 -90   XYZ
    dof rx
    limits (0.0 90.0)
  end
  begin
     id 30
     name rthumb
     direction -0.707107 -6.34804e-011 0.707107   
     length 0.811329   
     axis -90 -45 -2.85299e-015   XYZ
    dof rx rz
    limits (-45.0 45.0)
           (-45.0 45.0)
  end
:hierarchy
  begin
    root lhipjoint rhipjoint lowerback
    lhipjoint lfemur
    lfemur ltibia
    ltibia lfoot
    lfoot ltoes
    rhipjoint rfemur
    rfemur rtibia
    rtibia rfoot
    rfoot rtoes
    lowerback upperback
    upperback thorax
    thorax lowerneck lclavicle rclavicle
    lowerneck upperneck
    upperneck head
    lclavicle lhumerus
    lhumerus lradius
    lradius lwrist
    lwrist lhand lthumb
    lhand lfingers
    rclavicle rhumerus
    rhumerus rradius
    rradius rwrist
    rwrist rhand rthumb
    rhand rfingers
  end

#!OML:ASF F:\VICON\USERDATA\INSTALL\SteveWalk\SteveWalk.ASF
:FULLY-SPECIFIED
:DEGREES
224
root 0.640692 16.0907 2.87571 18.2861 5.92545 1.58611
lowerback -15.68 -2.45937 0.763262
upperback -5.42469 -3.44288 2.23536
thorax 3.11463 -1.69608 1.29355
lowerneck -5.36941 1.47534 2.22289
upperneck 5.28448 2.16157 -5.69283
head 2.74104 0.936245 -2.15766
rclavicle 1.39957e-014 1.19271e-014
rhumerus -83.9406 -38.1251 -11.7135
rradius 12.3717
rwrist 46.2326
rhand -11.5327 -36.6725
rfingers 7.12502
rthumb 14.5073 -66.1453
lclavicle 1.39957e-014 1.19271e-014
lhumerus -27.5264 -0.781535 82.7583
lradius 52.9218
lwrist 10.4377
lhand -24.1643 -20.0543
lfingers 7.12502
lthumb 2.31869 9.91281
rfemur -50.2706 -3.24467 21.6757
rtibia 28.6453
rfoot -4.78757 3.70543
rtoes -36.2817
lfemur -3.15072 -0.791084 -21.2268
ltibia 31.7839
lfoot -8.3784 -15.8481
ltoes -27.6226
225
root 0.641738 16.1025 3.10214 18.1998 5.78314 1.33638
lowerback -15.6384 -2.40636 1.24377
upperback -5.40836 -3.45036 2.3637
thorax 3.08954 -1.70162 1.15805
lowerneck -5.49849 1.5381 2.34212
upperneck 5.32486 2.26039 -6.04841
head 2.79417 0.97391 -2.29571
rclavicle 4.58696e-014 -1.59028e-014
rhumerus -84.7805 -38.9567 -9.74804
rradius 12.1237
rwrist 48.6469
rhand -11.3787 -36.761
rfingers 7.12502
rthumb 14.6556 -66.2231
lclavicle 4.58696e-014 -1.59028e-014
lhumerus -28.4712 -0.371266 82.8683
lradius 53.0459
lwrist 10.7315
lhand -24.2891 -20.0106
lfingers 7.12502
lthumb 2.19814 9.95783
rfemur -50.0698 -2.72141 21.7697
rtibia 29.984
rfoot -4.64662 2.93785
rtoes -34.173
lfemur -4.53991 -0.703719 -20.9058
ltibia 35.0819
lfoot -2.89061 -16.3929
ltoes -18.5137
226
root 0.644974 16.1151 3.31196 18.0627 5.45145 0.727005
lowerback -15.4017 -2.18359 2.11393
upperback -5.39299 -3.28658 2.52773
thorax 2.93742 -1.62523 0.879651
lowerneck -5.48819 1.5836 2.3278
upperneck 5.20449 2.32606 -6.18873
head 2.75781 1.00344 -2.33643
rclavicle 2.98177e-016 1.59028e-015
rhumerus -85.9186 -39.9201 -7.37453
rradius 12.0575
rwrist 50.5686
rhand -10.9679 -36.7457
rfingers 7.12502
rthumb 15.0514 -66.1786
lclavicle 2.98177e-016 1.59028e-015
lhumerus -29.2197 -0.0787486 83.0031
lradius 52.8709
lwrist 10.8299
lhand -24.6301 -19.9264
lfingers 7.12502
lthumb 1.86877 10.0451
rfemur -49.8949 -1.96126 22.214
rtibia 31.248
rfoot -4.87412 3.28409
rtoes -29.181
lfemur -6.02509 -0.337046 -20.297
ltibia 38.3599
lfoot 1.65839 -16.4279
ltoes -15.9861
227
root 0.649853 16.1312 3.51878 18.046 5.08204 0.279054
lowerback -15.195 -2.00733 2.78344
upperback -5.36257 -3.15028 2.64207
thorax 2.82794 -1.56207 0.654691
lowerneck -5.54268 1.68778 2.31057
upperneck 5.00399 2.45677 -6.18587
head 2.70637 1.06996 -2.32473
rclavicle 5.71506e-015 -1.59028e-015
rhumerus -85.9049 -40.8133 -6.96186
rradius 12.1457
rwrist 50.8546
rhand -11.135 -36.8961
rfingers 7.12502
rthumb 14.8904 -66.3409
lclavicle 5.71506e-015 -1.59028e-015
lhumerus -29.8446 0.206622 83.1355
lradius 52.6411
lwrist 10.9792
lhand -24.8625 -19.9785
lfingers 7.12502
lthumb 1.64433 9.99491
rfemur -49.6964 -1.25743 22.4875
rtibia 32.3063
rfoot -5.43266 4.2325
rtoes -24.4872
lfemur -7.69913 -0.0724338 -19.8683
ltibia 41.6469
lfoot 6.07655 -16.3918
ltoes -12.8081
228
root 0.645709 16.1458 3.7287 18.0742 4.77983 -0.0319619
lowerback -14.9895 -1.94306 3.10626
upperback -5.43245 -3.10606 2.79049
thorax 2.63523 -1.54448 0.645885
lowerneck -5.49136 1.81534 2.22936
upperneck 4.94305 2.62967 -6.15241
head 2.68196 1.15699 -2.29063
rclavicle -8.59744e-015 -9.54166e-015
rhumerus -85.8917 -41.7221 -6.41504
rradius 12.0078
rwrist 51.6569
rhand -12.083 -35.9895
rfingers 7.12502
rthumb 13.977 -65.4996
lclavicle -8.59744e-015 -9.54166e-015
lhumerus -30.6969 0.541169 83.2688
lradius 52.3373
lwrist 11.0953
lhand -24.9002 -19.8629
lfingers 7.12502
lthumb 1.60792 10.1108
rfemur -49.4212 -0.644769 22.7141
rtibia 33.2263
rfoot -6.046 4.59211
rtoes -21.4375
lfemur -9.39564 0.122123 -19.5204
ltibia 44.8557
lfoot 9.35454 -16.6784
ltoes -11.8075
229
root 0.643089 16.1651 3.94542 17.8092 4.6293 -0.094875
lowerback -14.6881 -1.9434 3.18021
upperback -5.42822 -3.10421 2.82678
thorax 2.47649 -1.54637 0.65369
lowerneck -5.38456 1.94131 2.23639
upperneck 5.01813 2.7959 -6.04627
head 2.69251 1.24381 -2.24991
rclavicle 1.39895e-014 -9.54166e-015
rhumerus -84.1033 -42.2062 -8.88582
rradius 12.0557
rwrist 50.5962
rhand -12.1902 -35.3261
rfingers 7.12502
rthumb 13.8737 -64.8434
lclavicle 1.39895e-014 -9.54166e-015
lhumerus -31.6295 0.480108 83.4523
lradius 52.0452
lwrist 11.4302
lhand -25.0105 -19.6251
lfingers 7.12502
lthumb 1.50144 10.3494
rfemur -48.7204 -0.256485 22.7378
rtibia 34.0612
rfoot -6.66156 4.11611
rtoes -17.89
lfemur -10.6986 0.0291709 -19.4192
ltibia 47.9529
lfoot 11.8309 -16.9923
ltoes -13.3685
230
root 0.63899 16.1858 4.15482 17.5647 4.60212 -0.159501
lowerback -14.6024 -1.92362 3.28235
upperback -5.31023 -3.09375 2.84033
thorax 2.55002 -1.54013 0.612665
lowerneck -5.07789 1.9848 2.12201
upperneck 4.79651 2.83915 -5.7994
head 2.55368 1.27843 -2.14321
rclavicle 1.84124e-014 -8.74653e-015
rhumerus -81.7798 -42.598 -12.1435
rradius 12.2725
rwrist 48.509
rhand -12.4063 -36.3231
rfingers 7.12502
rthumb 13.6655 -65.8545
lclavicle 1.84124e-014 -8.74653e-015
lhumerus -32.1028 0.456799 83.7064
lradius 51.3828
lwrist 11.5351
lhand -24.8743 -19.5741
lfingers 7.12502
lthumb 1.63293 10.3994
rfemur -47.993 -0.129783 22.9067
rtibia 34.7581
rfoot -7.29789 3.81562
rtoes -16.1474
lfemur -12.0715 -0.141192 -19.2951
ltibia 50.9599
lfoot 14.3047 -16.9067
ltoes -15.4911
231
root 0.63601 16.2057 4.35713 17.5062 4.53314 -0.18551
lowerback -14.5603 -1.8848 3.34552
upperback -5.24378 -3.05111 2.80999
thorax 2.59269 -1.51861 0.552465
lowerneck -4.90731 1.97442 2.1809
upperneck 4.63017 2.80839 -5.6981
head 2.46375 1.27198 -2.12049
rclavicle 5.49143e-015 -7.15625e-015
rhumerus -80.6479 -43.3421 -13.5662
rradius 12.3674
rwrist 47.4722
rhand -13.4029 -36.0798
rfingers 7.12502
rthumb 12.7048 -65.6733
lclavicle 5.49143e-015 -7.15625e-015
lhumerus -32.4553 0.418607 83.8792
lradius 50.5824
lwrist 11.3364
lhand -24.8117 -19.6142
lfingers 7.12502
lthumb 1.6934 10.3588
rfemur -47.4407 -0.228824 23.1484
rtibia 35.3501
rfoot -8.14615 4.22759
rtoes -14.4591
lfemur -13.6276 -0.200462 -19.2513
ltibia 53.8866
lfoot 16.6796 -16.2883
ltoes -17.5732
232
root 0.63712 16.23 4.56462 17.3941 4.57838 -0.544648
lowerback -14.3396 -1.80536 3.83516
upperback -5.24446 -3.002 2.83875
thorax 2.44895 -1.4995 0.3246
lowerneck -5.21729 1.95996 2.22932
upperneck 5.00999 2.79128 -5.55422
head 2.64514 1.2594 -2.08396
rclavicle 4.37078e-014 -2.54444e-014
rhumerus -78.3886 -43.7704 -16.5568
rradius 12.3488
rwrist 45.5557
rhand -13.9367 -35.0324
rfingers 7.12502
rthumb 12.1902 -64.6572
lclavicle 4.37078e-014 -2.54444e-014
lhumerus -32.8941 0.324266 84.0835
lradius 49.6381
lwrist 11.0435
lhand -24.6575 -19.4755
lfingers 7.12502
lthumb 1.84237 10.4963
rfemur -46.7063 -0.513774 23.8341
rtibia 35.8124
rfoot -8.91504 4.83567
rtoes -11.4347
lfemur -15.0405 -0.12356 -18.8183
ltibia 56.7045
lfoot 18.6077 -15.2877
ltoes -18.7497
233
root 0.631642 16.2479 4.76427 17.247 4.59552 -0.855001
lowerback -14.1255 -1.68603 4.10795
upperback -5.26433 -2.86895 2.89164
thorax 2.30393 -1.4375 0.256185
lowerneck -5.21775 1.85047 2.14434
upperneck 5.27733 2.64997 -5.35606
head 2.72206 1.19047 -2.0102
rclavicle -1.17656e-014 -1.03368e-014
rhumerus -75.3456 -43.7844 -20.8386
rradius 12.6307
rwrist 42.5603
rhand -13.7999 -36.2721
rfingers 7.12502
rthumb 12.322 -65.889
lclavicle -1.17656e-014 -1.03368e-014
lhumerus -33.2507 0.0303182 84.4918
lradius 48.6805
lwrist 11.5074
lhand -24.4362 -19.0478
lfingers 7.12502
lthumb 2.05605 10.9221
rfemur -45.9106 -0.820058 24.5019
rtibia 36.1217
rfoot -9.68426 4.89326
rtoes -10.4772
lfemur -16.5206 0.101358 -18.4074
ltibia 59.4547
lfoot 19.3483 -13.9062
ltoes -19.3565
234
root 0.619137 16.265 4.95725 17.1725 4.42518 -0.928637
lowerback -14.0178 -1.56825 3.96686
upperback -5.22868 -2.691 2.91255
thorax 2.2958 -1.34765 0.386967
lowerneck -5.01869 1.69698 2.14184
upperneck 5.16359 2.4393 -5.32841
head 2.63683 1.09065 -2.00847
rclavicle 3.11222e-014 1.59028e-015
rhumerus -71.8886 -43.4657 -25.7771
rradius 13.1573
rwrist 39.2635
rhand -13.8726 -37.3465
rfingers 7.12502
rthumb 12.2519 -66.9676
lclavicle 3.11222e-014 1.59028e-015
lhumerus -33.4408 -0.226462 84.9338
lradius 47.414
lwrist 11.5137
lhand -24.12 -19.5397
lfingers 7.12502
lthumb 2.36143 10.427
rfemur -45.1654 -0.871238 24.7972
rtibia 36.2951
rfoot -10.5322 4.64853
rtoes -11.8082
lfemur -18.2018 0.46005 -18.3118
ltibia 62.1161
lfoot 19.315 -12.1311
ltoes -19.1211
